<?xml version="1.0" encoding="UTF-8" standalone="no"?>
<!-- Created with Inkscape (http://www.inkscape.org/) -->

<svg
   width="120"
   height="120"
   viewBox="0 0 120 120"
   version="1.1"
   id="svg1"
   sodipodi:docname="oxbr_icon.svg"
   inkscape:version="1.4 (e7c3feb1, 2024-10-09)"
   xmlns:inkscape="http://www.inkscape.org/namespaces/inkscape"
   xmlns:sodipodi="http://sodipodi.sourceforge.net/DTD/sodipodi-0.dtd"
   xmlns="http://www.w3.org/2000/svg"
   xmlns:svg="http://www.w3.org/2000/svg">
  <sodipodi:namedview
     id="namedview1"
     pagecolor="#ffffff"
     bordercolor="#000000"
     borderopacity="0.25"
     inkscape:showpageshadow="2"
     inkscape:pageopacity="0.0"
     inkscape:pagecheckerboard="0"
     inkscape:deskcolor="#d1d1d1"
     inkscape:document-units="px"
     inkscape:zoom="8.4083333"
     inkscape:cx="72.784936"
     inkscape:cy="60"
     inkscape:window-width="2560"
     inkscape:window-height="1302"
     inkscape:window-x="0"
     inkscape:window-y="25"
     inkscape:window-maximized="1"
     inkscape:current-layer="g5" />
  <defs
     id="defs1">
    <linearGradient
       id="swatch37">
      <stop
         style="stop-color:#b6e6c1;stop-opacity:1;"
         offset="0"
         id="stop37" />
    </linearGradient>
    <clipPath
       clipPathUnits="userSpaceOnUse"
       id="clipPath52">
      <path
         id="path52"
         style="stroke-width:0.1;stroke-linecap:square;paint-order:markers fill stroke;stop-color:#000000"
         d="m -880.82767,-187.29769 h 1640.84 v 73.28155 h -1640.84 z" />
    </clipPath>
    <clipPath
       clipPathUnits="userSpaceOnUse"
       id="clipPath27">
      <rect
         style="fill:none;stroke:#000000;stroke-width:0.999999;stroke-linecap:butt;stroke-linejoin:bevel;paint-order:stroke markers fill;stop-color:#000000"
         id="rect28-6"
         width="46.160622"
         height="39.922417"
         x="86.574379"
         y="420.06253" />
    </clipPath>
    <clipPath
       clipPathUnits="userSpaceOnUse"
       id="clipPath25">
      <rect
         style="fill:#ff0000;stroke:none;stroke-width:3;stroke-linecap:square;stroke-linejoin:miter;paint-order:stroke markers fill;stop-color:#000000"
         id="rect25-8"
         width="78"
         height="45.033199"
         x="763.61322"
         y="452.82422" />
    </clipPath>
    <clipPath
       clipPathUnits="userSpaceOnUse"
       id="clipPath2">
      <path
         d="M 0,0 H 53 V 80 H 0 Z"
         transform="matrix(0.27777778,0,0,-0.27777778,0.14022222,15.097722)"
         id="path2" />
    </clipPath>
    <clipPath
       clipPathUnits="userSpaceOnUse"
       id="clipPath4">
      <path
         d="M 0,0 H 53 V 80 H 0 Z"
         transform="matrix(0.27777778,0,0,-0.27777778,-0.96677777,0.15372222)"
         id="path4" />
    </clipPath>
    <clipPath
       clipPathUnits="userSpaceOnUse"
       id="clipPath2-0">
      <path
         d="M 0,0 H 50 V 25 H 0 Z"
         transform="matrix(0.27777778,0,0,-0.27777778,-0.135,0.09772215)"
         id="path2-3" />
    </clipPath>
    <clipPath
       clipPathUnits="userSpaceOnUse"
       id="clipPath2-3">
      <path
         d="M 0,0 H 53 V 80 H 0 Z"
         transform="matrix(0.27777778,0,0,-0.27777778,0.14022222,15.097722)"
         id="path2-5" />
    </clipPath>
    <clipPath
       clipPathUnits="userSpaceOnUse"
       id="clipPath2-5">
      <path
         d="M 0,0 H 53 V 80 H 0 Z"
         transform="matrix(0.27777778,0,0,-0.27777778,0.14022222,15.097722)"
         id="path2-54" />
    </clipPath>
    <clipPath
       clipPathUnits="userSpaceOnUse"
       id="clipPath2-3-0">
      <path
         d="M 0,0 H 19 V 21 H 0 Z"
         transform="matrix(0.27777778,0,0,-0.27777778,0.71144444,0.43105563)"
         id="path2-0" />
    </clipPath>
  </defs>
  <g
     inkscape:label="Layer 1"
     inkscape:groupmode="layer"
     id="layer1">
    <g
       id="g5"
       transform="matrix(1.3880862,0,0,1.3880862,160.01832,-19.924246)">
      <rect
         style="fill:#b2b2b2;fill-opacity:0.692935"
         id="rect2"
         width="84.092789"
         height="41.159519"
         x="-114.2788"
         y="18.339249"
         ry="20.57976"
         rx="9.418746" />
      <path
         id="path1"
         d="m 7.4221233,-3.4078659 c 0,-2.5097656 -1.7610677,-3.6067708 -3.5449219,-3.6067708 -1.8229167,0 -3.54817709,1.1458333 -3.54817709,3.5970052 0,2.50976561 1.76432289,3.60677082 3.54817709,3.60677082 1.8229167,0 3.5449219,-1.14583333 3.5449219,-3.59700522 z m -4.921875,-2.9785156 c -0.6054688,0.7063802 -0.764974,1.8717448 -0.764974,2.96875 0,0.9765625 0.1171875,2.2233073 0.7747396,2.99804686 -0.686849,-0.25716145 -1.8326823,-1.05468746 -1.8326823,-2.98828126 0,-2.03125 1.2369792,-2.7701823 1.813151,-2.9882812 z m 2.7604166,-0.00977 c 0.6673177,0.2473958 1.8131511,1.0449218 1.8131511,2.9785156 0,2.0345052 -1.233724,2.77018228 -1.8326823,2.99804686 0.6184896,-0.72591146 0.7779948,-1.89127606 0.7779948,-2.98828126 0,-0.9765625 -0.1204427,-2.2200521 -0.7682292,-2.9785156 z m -1.3834635,6.23697913 c -1.6145833,0 -1.7936198,-2.11263023 -1.7936198,-3.24869793 0,-1.1946614 0.1985677,-3.2584635 1.7936198,-3.2584635 1.6145833,0 1.7936198,2.1126302 1.7936198,3.2486979 0,1.1946614 -0.2018229,3.25846353 -1.7936198,3.25846353 z M 12.322839,-6.8258346 c -0.179036,0 -0.328776,0 -0.328776,0.1790364 0,0.1204427 0.100912,0.1595052 0.188802,0.1692709 0.348308,0.042318 0.348308,0.4394531 0.348308,0.4785156 0,0.2799479 -0.117188,0.4296875 -0.397136,0.797526 -0.179036,0.2506511 -0.40039,0.5371094 -0.559896,0.7291667 -0.976562,-1.5071615 -1.035156,-1.6861979 -1.103515,-1.8945313 0.159505,-0.091146 0.377604,-0.110677 0.488281,-0.110677 0.06836,0 0.23763,0 0.23763,-0.1692709 0,-0.1790364 -0.149739,-0.1790364 -0.328776,-0.1790364 H 8.3059123 c -0.1790364,0 -0.328776,0 -0.328776,0.1790364 0,0.00977 0,0.139974 0.1497396,0.1692709 0.2994791,0.042318 0.3385416,0.091146 0.5078125,0.3092447 0.5696614,0.7194011 1.9856766,2.8515625 2.1842446,3.1608073 l -1.0774738,1.233724 c -0.7356771,0.82682291 -1.1946615,1.34440104 -1.5950521,1.42578125 -0.097656,0.0195313 -0.2083333,0.0390625 -0.2083333,0.16927083 0,0.17903645958 0.1497396,0.17903645958 0.328776,0.17903645958 H 9.972579 c 0.179036,0 0.338542,0 0.338542,-0.17903645958 0,-0.13997396 -0.139974,-0.15950521 -0.221355,-0.16927083 -0.367838,-0.061849 -0.367838,-0.48828125 -0.367838,-0.49804688 0,-0.27018227 0.1595052,-0.44921877 0.2180989,-0.52734377 0.3613281,-0.4296875 0.7486981,-0.859375 1.1263021,-1.2760416 1.097005,1.66341141 1.188151,1.93359371 1.266276,2.16145829 -0.179036,0.12044271 -0.419922,0.13997396 -0.61849,0.13997396 -0.08789,0 -0.257161,0 -0.257161,0.16927083 0,0.17903645958 0.14974,0.17903645958 0.328776,0.17903645958 h 2.659505 c 0.179037,0 0.328776,0 0.328776,-0.17903645958 0,-0.10091146 -0.07813,-0.14973958 -0.159505,-0.16927083 -0.169271,-0.0292969 -0.218099,-0.0716146 -0.247396,-0.0911458 -0.139974,-0.12695312 -0.777995,-1.04492195 -1.188151,-1.65364585 l -1.354166,-2.0019531 c 0.01953,-0.029297 0.130208,-0.1692709 0.260416,-0.3483073 l 0.498047,-0.6477865 c 0.498047,-0.6575521 1.015625,-1.3151042 1.822917,-1.3867187 0.09766,-0.00977 0.23763,-0.019531 0.23763,-0.1692709 0,-0.1790364 -0.14974,-0.1790364 -0.328776,-0.1790364 z m 1.08724,0.3483073 c -0.179036,0.1302083 -0.338542,0.2897135 -0.530599,0.46875 0,-0.1595053 -0.0293,-0.3287761 -0.117187,-0.46875 z m -4.046224,5.641276 c 0,0.009766 0.019531,0.12044271 0.019531,0.13997396 0.039063,0.1985677 0.1009114,0.30924479 0.1302083,0.34830729 H 8.8658082 Z m 0.745443,-5.641276 c 0,0.2018229 0,0.328776 0.618489,1.3378906 0.358073,0.5566406 2.542318,3.8834635 3.258464,4.79166665 h -1.315104 c 0.0098,-0.0292969 0.01953,-0.0716146 0.01953,-0.11067709 0,-0.14973958 -0.107422,-0.41666666 -0.507813,-1.09700516 -0.406901,-0.6575521 -2.539062,-3.9127605 -3.3463537,-4.921875 z m 0,0"
         style="fill:#000000;fill-opacity:1;fill-rule:nonzero;stroke:none"
         aria-label="&lt;latexit sha1_base64=&quot;fZnTUuMCbVCUtH28RO9KxbOFZFQ=&quot;&gt;AAACA3icbVDLSsNAFJ3UV42vqDvdDBbBVUlEqstSN+6sYh/QhDKZTtqhk0mYmQglBNz4K25cKOLWn3Dn3zhpI2jrgYEz59zLvff4MaNS2faXUVpaXlldK6+bG5tb2zvW7l5bRonApIUjFomujyRhlJOWooqRbiwICn1GOv74Mvc790RIGvE7NYmJF6IhpwHFSGmpbx24IVIj30+vuxl0XfPne9vI+lbFrtpTwEXiFKQCCjT71qc7iHASEq4wQ1L2HDtWXoqEopiRzHQTSWKEx2hIeppyFBLppdMbMnislQEMIqEfV3Cq/u5IUSjlJPR1Zb6inPdy8T+vl6jgwkspjxNFOJ4NChIGVQTzQOCACoIVm2iCsKB6V4hHSCCsdGymDsGZP3mRtE+rTq1auzmr1BtFHGVwCI7ACXDAOaiDK9AELYDBA3gCL+DVeDSejTfjfVZaMoqeffAHxsc3W8eXWw==&lt;/latexit&gt;OX"
         transform="matrix(4.8,0,0,4.8,-108.91247,56.021392)"
         clip-path="url(#clipPath2)" />
      <circle
         style="fill:#595959;fill-opacity:1"
         id="path5"
         cx="-95.276283"
         cy="37.129253"
         r="2.6910703" />
      <circle
         style="fill:#595959;fill-opacity:1"
         id="path5-8"
         cx="-85.495918"
         cy="37.108734"
         r="2.6910703" />
    </g>
    <path
       id="path1-4"
       clip-path="url(#clipPath2-0)"
       style="fill:#000000;fill-opacity:1;fill-rule:nonzero;stroke:none"
       d="M 0.42985798 -6.8264268 C 0.25082152 -6.8264268 0.091113229 -6.8264759 0.091113229 -6.6474394 C 0.091113229 -6.4781686 0.26058982 -6.4782149 0.42009503 -6.4782149 C 1.0157981 -6.4782149 1.0449238 -6.3771663 1.0449238 -5.8986507 L 1.0449238 -0.92783036 C 1.0449238 -0.42978349 1.0060436 -0.34856204 0.37778892 -0.34856204 C 0.27036705 -0.34856204 0.091113229 -0.34860843 0.091113229 -0.17933759 C 0.091113229 -0.00030113548 0.25082152 -0.00035018811 0.42985798 -0.00035018811 L 3.3886233 -0.00035018811 C 4.6125817 -0.00035018811 6.1882229 -0.47865144 6.1882229 -1.862115 C 6.1882229 -2.1105345 6.1437986 -2.3307312 6.0678132 -2.5256997 C 6.2835705 -2.3979419 6.5349358 -2.3242279 6.8050638 -2.3242279 L 7.5559234 -2.3242279 C 7.6042409 -2.3242279 7.6544293 -2.3248858 7.6872794 -2.3467123 L 7.6872794 -0.91806741 C 7.6872794 -0.42002053 7.6383242 -0.34856204 7.0719178 -0.34856204 C 6.9905378 -0.34856204 6.8018095 -0.34860843 6.8018095 -0.17933759 C 6.8018095 -0.00030113548 6.961222 -0.00035018811 7.1402584 -0.00035018811 L 9.8715174 -0.00035018811 C 10.050554 -0.00035018811 10.200203 -0.00030113548 10.200203 -0.17933759 C 10.200203 -0.34860843 10.03101 -0.34856204 9.9203322 -0.34856204 C 9.353926 -0.34856204 9.3114791 -0.42978615 9.3114791 -0.91806741 L 9.3114791 -3.1283399 L 9.6730041 -3.1283399 L 11.167031 -0.81718361 C 11.264691 -0.6576784 11.505746 -0.27049949 11.613168 -0.1207599 C 11.684778 -0.0003171902 11.713989 -0.00035018811 11.941854 -0.00035018811 L 13.318726 -0.00035018811 C 13.497762 -0.00035018811 13.647412 -0.00030113548 13.647412 -0.17933759 C 13.647412 -0.26071779 13.588863 -0.32903079 13.497713 -0.34856204 C 13.129875 -0.42994224 12.641599 -1.0875003 12.400713 -1.4065107 C 12.332353 -1.5041667 11.834349 -2.1618086 11.167031 -3.2392826 C 12.052448 -3.3987878 12.908682 -3.776216 12.908682 -4.9611118 C 12.908682 -6.3478305 11.443674 -6.8264268 10.268544 -6.8264268 L 7.1402584 -6.8264268 C 6.961222 -6.8264268 6.8018095 -6.8264759 6.8018095 -6.6474394 C 6.8018095 -6.4781686 6.9905376 -6.4782149 7.0719178 -6.4782149 C 7.6383241 -6.4782149 7.6872794 -6.4064602 7.6872794 -5.9084137 L 7.6872794 -5.2779639 C 7.65443 -5.2998081 7.604254 -5.3004482 7.5559234 -5.3004482 L 6.8050638 -5.3004482 C 6.4068001 -5.3004482 6.0488399 -5.14079 5.7867586 -4.8818248 C 5.8020575 -4.9588282 5.8107222 -5.0382199 5.8107222 -5.1205733 C 5.8107222 -6.5072921 4.6649447 -6.8264268 3.4474968 -6.8264268 L 0.42985798 -6.8264268 z M 1.3055649 -6.4782149 L 2.3928025 -6.4782149 C 2.2625941 -6.3187097 2.262334 -6.1167301 2.262334 -5.9702457 L 2.262334 -0.8562354 C 2.262334 -0.70649581 2.2625941 -0.50806725 2.3928025 -0.34856204 L 1.3055649 -0.34856204 C 1.3967109 -0.5275985 1.3966858 -0.77809613 1.3966858 -0.90830446 L 1.3966858 -5.9181766 C 1.3966858 -6.048385 1.3967109 -6.2991784 1.3055649 -6.4782149 z M 3.1770927 -6.4782149 C 3.6165458 -6.4782149 4.1634464 -6.1296986 4.1634464 -5.0815215 C 4.1634464 -3.964985 3.5971699 -3.7274353 2.6108417 -3.7079041 L 2.6108417 -5.9377025 C 2.6108417 -6.1395254 2.6108033 -6.2468323 2.7507773 -6.3575094 C 2.7898403 -6.3770404 2.9394625 -6.4782149 3.1770927 -6.4782149 z M 7.9573877 -6.4782149 L 9.0934399 -6.4782149 C 8.9632316 -6.3187097 8.9632673 -6.1167301 8.9632673 -5.9702457 L 8.9632673 -0.8952872 C 8.9632673 -0.7976309 8.9632452 -0.5275985 9.0446252 -0.34856204 L 7.9573877 -0.34856204 C 8.0387677 -0.5275985 8.0387456 -0.80739657 8.0387456 -0.8952872 L 8.0387456 -5.9279396 C 8.0387456 -6.028851 8.0387677 -6.2991784 7.9573877 -6.4782149 z M 9.9300951 -6.4782149 C 10.776449 -6.4782149 11.19632 -6.1297342 11.19632 -4.9513488 C 11.19632 -3.6655415 10.887 -3.4768476 9.3114791 -3.4768476 L 9.3114791 -5.9377025 C 9.3114791 -6.149291 9.3116055 -6.4782149 9.9300951 -6.4782149 z M 4.0658169 -6.435613 C 4.7526658 -6.357488 5.4589602 -6.1069014 5.4589602 -5.1205733 C 5.4589602 -4.4825525 4.7624207 -3.9650334 4.1048687 -3.8250595 C 4.4336447 -4.1440699 4.5152085 -4.651834 4.5152085 -5.0815215 C 4.5152085 -5.7683705 4.2936814 -6.1979828 4.0658169 -6.435613 z M 11.167031 -6.3672723 C 11.573932 -6.2761263 12.560174 -5.9702264 12.560174 -4.9611118 C 12.560174 -4.3133253 12.260762 -3.8055853 11.235372 -3.6167833 C 11.51532 -3.9846218 11.544828 -4.5151509 11.544828 -4.9513488 C 11.544828 -5.4298644 11.486045 -5.957116 11.167031 -6.3672723 z M 7.6872794 -5.1182065 L 7.6872794 -3.8916251 C 7.6544293 -3.9134516 7.6042409 -3.9138136 7.5559234 -3.9138136 L 5.5394306 -3.9138136 C 5.5954062 -4.6029105 6.1425276 -5.0957221 6.8142351 -5.0957221 L 7.5559234 -5.0957221 C 7.6042409 -5.0957221 7.6544293 -5.09638 7.6872794 -5.1182065 z M 5.3826317 -4.1561122 C 5.3570979 -4.0454552 5.3432841 -3.9300855 5.3432841 -3.8114505 C 5.3432841 -3.6403381 5.3716661 -3.4762819 5.4234586 -3.3233031 C 5.2003075 -3.4783252 4.95063 -3.5883599 4.7039588 -3.6558351 C 4.9476706 -3.7826792 5.1870406 -3.9518554 5.3826317 -4.1561122 z M 7.6872794 -3.7315719 L 7.6872794 -2.5064697 C 7.65443 -2.5283139 7.604254 -2.528954 7.5559234 -2.528954 L 6.8142351 -2.528954 C 6.1425276 -2.528954 5.5954062 -3.0219631 5.5394306 -3.7093833 L 7.5559234 -3.7093833 C 7.6042409 -3.7093833 7.6544293 -3.7097454 7.6872794 -3.7315719 z M 4.2740932 -3.3987441 C 5.1920619 -3.2490045 5.8400111 -2.7312556 5.8400111 -1.862115 C 5.8400111 -1.1069066 5.2408598 -0.66753945 4.38474 -0.46897175 C 4.7525785 -0.88563841 4.8243685 -1.4161514 4.8243685 -1.862115 C 4.8243685 -2.5522191 4.6744838 -3.0699681 4.2740932 -3.3987441 z M 2.6108417 -3.3596923 C 3.4083678 -3.3596923 3.7468092 -3.3594597 4.056054 -3.1283399 C 4.4434238 -2.8288607 4.4726065 -2.1811254 4.4726065 -1.862115 C 4.4726065 -1.4747452 4.4433624 -0.34856204 3.1998729 -0.34856204 C 2.6106802 -0.34856204 2.6108417 -0.69672217 2.6108417 -0.88552425 L 2.6108417 -3.3596923 z M 10.786276 -3.190172 C 10.936016 -2.9492865 12.013519 -1.175385 12.840342 -0.34856204 L 11.873514 -0.34856204 L 10.079794 -3.1283399 C 10.148154 -3.1381099 10.190419 -3.1478658 10.268544 -3.1478658 C 10.418283 -3.1478658 10.636536 -3.167385 10.786276 -3.190172 z "
       transform="matrix(6.6018089,0,0,6.6018089,14.244191,109.89489)" />
    <path
       style="fill:#b1b1b1;fill-opacity:0.694118;stroke-width:0.11893"
       d="m 23.130074,107.10106 c 0.394161,-1.11717 0.417993,-2.24307 0.417993,-19.747244 0,-17.504177 -0.02383,-18.630078 -0.417993,-19.747249 L 22.96397,67.135778 h 3.443684 c 1.894026,0 3.443684,0.02864 3.443684,0.06365 0,0.03501 -0.07755,0.182183 -0.172345,0.327057 -0.09479,0.144874 -0.255345,0.582382 -0.356789,0.972239 -0.162736,0.625406 -0.184444,2.844566 -0.184444,18.855093 0,16.010523 0.02171,18.229683 0.184444,18.855093 0.101444,0.38986 0.261999,0.82736 0.356789,0.97224 0.09479,0.14487 0.172345,0.29205 0.172345,0.32705 0,0.035 -1.549658,0.0636 -3.443684,0.0636 H 22.96397 Z"
       id="path47" />
    <path
       style="fill:#b1b1b1;fill-opacity:0.694118;stroke-width:0.11893"
       d="m 42.049546,83.945864 c 1.992648,-2.610511 2.630392,-7.580574 1.529561,-11.920177 -0.334888,-1.320167 -1.26501,-3.298811 -1.89333,-4.027669 -0.239651,-0.277998 -0.383952,-0.505451 -0.32067,-0.505451 0.246677,0 2.137771,0.382074 2.757787,0.55718 1.69593,0.478966 3.280574,1.394087 4.216384,2.434933 0.706521,0.785822 1.437429,2.300772 1.666817,3.454806 0.237869,1.196708 0.234434,2.846592 -0.0076,3.670246 -0.769174,2.617079 -3.358756,5.084019 -6.648601,6.333725 -0.588701,0.22363 -1.218067,0.441376 -1.398591,0.483882 l -0.328224,0.07728 z"
       id="path48" />
    <path
       style="fill:#b1b1b1;fill-opacity:0.694118;stroke-width:0.11893"
       d="m 43.548175,106.53122 c 0.02186,-0.0491 0.293952,-0.47326 0.604642,-0.94266 1.34055,-2.02536 1.991881,-4.65991 1.991881,-8.056909 0,-4.307452 -0.952091,-7.362828 -2.958437,-9.49399 -0.230926,-0.245292 -0.368866,-0.445851 -0.306532,-0.445686 0.216756,5.74e-4 2.37713,0.604219 3.027109,0.845826 1.016497,0.377848 2.358495,1.116002 3.254428,1.790071 1.591407,1.19732 2.792094,3.046226 3.30113,5.083322 0.355638,1.423214 0.280521,3.743788 -0.159123,4.915746 -1.050874,2.80133 -3.521212,4.80995 -7.410953,6.02581 -1.24023,0.38767 -1.408332,0.4225 -1.344145,0.27847 z"
       id="path49" />
    <path
       style="fill:#b1b1b1;fill-opacity:0.694118;stroke-width:0.11893"
       d="m 67.051856,107.0664 c 0.188258,-0.46909 0.202852,-1.88722 0.202852,-19.712584 0,-17.825369 -0.01459,-19.243498 -0.202852,-19.712587 l -0.202851,-0.505451 h 3.622078 c 1.992143,0 3.622079,0.01544 3.622079,0.03432 0,0.01887 -0.104599,0.239483 -0.232442,0.49024 -0.127844,0.250756 -0.289545,0.730983 -0.359337,1.06717 -0.08757,0.421805 -0.11689,6.342494 -0.09462,19.103417 0.03004,17.210775 0.04661,18.533375 0.23912,19.086815 0.113762,0.32706 0.207419,0.60803 0.208127,0.62438 7.08e-4,0.0164 -1.57513,0.0297 -3.501861,0.0297 H 66.849 Z"
       id="path50" />
    <path
       style="fill:#b1b1b1;fill-opacity:0.694118;stroke-width:0.11893"
       d="m 89.186637,84.829684 c 0.937474,-1.869436 1.318814,-4.033246 1.318814,-7.483246 0,-4.01393 -0.663153,-6.879241 -2.067658,-8.933813 l -0.306001,-0.447633 0.324589,0.07868 c 1.809243,0.43854 4.318119,1.613713 5.496084,2.5744 1.452075,1.184237 2.438552,2.674389 2.859177,4.319019 0.296817,1.160542 0.317829,3.254909 0.04499,4.48443 -0.67919,3.06071 -3.056534,5.197873 -6.844554,6.153054 -0.546287,0.137751 -1.079971,0.274729 -1.185964,0.304395 -0.139092,0.03893 -0.03878,-0.253038 0.360522,-1.049283 z"
       id="path51" />
    <path
       style="fill:#b1b1b1;fill-opacity:0.694118;stroke-width:0.11893"
       d="m 86.807931,98.444004 c -3.243394,-5.020317 -5.884628,-9.14455 -5.869408,-9.164961 0.02269,-0.03043 2.801892,-0.232616 4.147779,-0.301753 0.324565,-0.01667 0.419049,0.09422 1.352732,1.587626 4.024238,6.436689 8.401872,12.546674 11.311601,15.787904 l 1.094349,1.21903 h -3.069986 -3.069985 z"
       id="path53" />
    <path
       style="fill:#b1b1b1;fill-opacity:0.694118;stroke-width:0.11893"
       d="m 50.901883,83.763793 c 0,-0.492417 0.385619,-1.823077 0.769053,-2.653783 0.779613,-1.689024 2.162968,-3.110426 3.806638,-3.911332 1.57764,-0.768733 1.889529,-0.815218 5.860384,-0.87345 l 3.597622,-0.05276 v 3.875658 3.875659 h -7.016849 -7.016848 z"
       id="path54" />
    <path
       style="fill:#b1b1b1;fill-opacity:0.694118;stroke-width:0.11893"
       d="m 58.156591,93.064833 c -3.425589,-0.446964 -6.165844,-2.882321 -7.016154,-6.235493 -0.131205,-0.5174 -0.238554,-1.038365 -0.238554,-1.157699 0,-0.2072 0.316009,-0.218394 7.016869,-0.248568 l 7.016869,-0.0316 -2e-5,3.894945 -2.1e-5,3.894946 -3.062438,-0.01559 c -1.684341,-0.0086 -3.356789,-0.054 -3.716551,-0.100941 z"
       id="path55" />
  </g>
</svg>
